<svg xmlns="http://www.w3.org/2000/svg" width="2578" height="1404" viewBox="0 0 2578 1404" version="1.1"><path d="M 1200.500 379.918 C 1192.045 382.043, 1183.702 388.913, 1179.150 397.500 L 1176.500 402.500 1176.500 459 L 1176.500 515.500 1179.250 520.717 C 1180.762 523.586, 1183.590 527.523, 1185.533 529.467 C 1187.477 531.410, 1191.414 534.238, 1194.283 535.750 L 1199.500 538.500 1256 538.500 L 1312.500 538.500 1317.717 535.750 C 1324.342 532.258, 1329.258 527.342, 1332.750 520.717 L 1335.500 515.500 1335.500 459 L 1335.500 402.500 1332.750 397.283 C 1329.258 390.658, 1324.342 385.742, 1317.717 382.250 L 1312.500 379.500 1258 379.332 C 1228.025 379.240, 1202.150 379.503, 1200.500 379.918 M 1241.009 416.490 C 1240.114 417.568, 1239.878 421.836, 1240.156 431.942 L 1240.539 445.904 1236.165 447.575 C 1230.539 449.723, 1225.429 454.238, 1222.808 459.376 C 1219.956 464.966, 1219.347 474.271, 1221.458 480 C 1222.370 482.475, 1223.262 487.990, 1223.441 492.257 C 1223.920 503.676, 1226.253 505.257, 1235.581 500.481 C 1240.189 498.122, 1241.479 497.958, 1256 497.892 C 1270.893 497.823, 1271.676 497.921, 1276 500.398 C 1284.859 505.473, 1288.157 503.514, 1288.611 492.906 C 1288.786 488.833, 1289.600 483.700, 1290.421 481.500 C 1292.410 476.164, 1292.375 468.456, 1290.333 462.463 C 1288.193 456.183, 1280.783 448.615, 1275.111 446.915 C 1271.058 445.701, 1270.984 445.599, 1271.617 442.087 C 1272.499 437.187, 1272.673 437, 1276.337 437 C 1279.784 437, 1282.313 438.417, 1288.253 443.677 C 1290.651 445.800, 1293.044 447, 1294.880 447 C 1299.983 447, 1301.768 441.965, 1297.500 439.611 C 1296.400 439.004, 1293.475 436.891, 1291 434.915 C 1284.558 429.772, 1282.745 429, 1277.113 429 L 1272.095 429 1271.798 422.854 C 1271.466 416.015, 1269.562 413.528, 1266.250 415.610 C 1264.786 416.530, 1264.417 418.738, 1263.993 429.105 C 1263.599 438.712, 1263.046 442.356, 1261.532 445.304 C 1259.274 449.700, 1260.167 452.305, 1264.102 452.805 C 1279.025 454.701, 1287.329 466.094, 1282.465 478 C 1281.411 480.580, 1280.667 484.739, 1280.722 487.750 C 1280.775 490.637, 1280.509 493, 1280.131 493 C 1279.754 493, 1278.377 492.252, 1277.072 491.338 C 1275.081 489.943, 1271.727 489.660, 1256.251 489.582 C 1240.262 489.501, 1237.451 489.721, 1235.152 491.238 C 1231.420 493.699, 1231.122 493.506, 1231.725 489.015 C 1232.100 486.215, 1231.626 483.558, 1230.130 480.080 C 1226.769 472.267, 1227.712 465.278, 1232.886 459.664 C 1236.369 455.885, 1238.477 454.803, 1244.932 453.481 C 1252.066 452.021, 1253.047 450.387, 1250.207 444.700 C 1248.317 440.916, 1248 438.637, 1248 428.840 C 1248 417.133, 1247.372 415, 1243.922 415 C 1243 415, 1241.689 415.670, 1241.009 416.490 M 1093 628.500 L 1093 654 1098.500 654 L 1104 654 1104 645 L 1104 636 1107.990 636 L 1111.980 636 1116.500 645 L 1121.020 654 1127.576 654 L 1134.131 654 1128.910 644.016 L 1123.689 634.032 1126.365 631.928 C 1130.276 628.851, 1132 624.803, 1132 618.698 C 1132 612.284, 1129.348 607.685, 1124.016 604.852 C 1121.111 603.308, 1118.242 603, 1106.766 603 L 1093 603 1093 628.500 M 1265 628.500 L 1265 654 1270.500 654 L 1276 654 1276 628.500 L 1276 603 1270.500 603 L 1265 603 1265 628.500 M 1104 619.500 L 1104 627 1108.953 627 C 1115.185 627, 1118.555 625.488, 1119.978 622.054 C 1121.334 618.779, 1120.006 614.609, 1117.114 613.061 C 1116.023 612.477, 1112.627 612, 1109.566 612 L 1104 612 1104 619.500 M 1147.500 616.412 C 1135.637 621.684, 1133.195 642.715, 1143.505 650.825 C 1151.861 657.398, 1167.220 655.276, 1171.524 646.953 C 1173.790 642.572, 1173.401 642, 1168.155 642 C 1164.580 642, 1162.836 642.524, 1161.500 644 C 1158.736 647.054, 1152.711 646.719, 1150.073 643.365 C 1146.136 638.360, 1146.837 638, 1160.531 638 C 1174.886 638, 1174.818 638.044, 1173.060 629.843 C 1170.981 620.148, 1164.694 614.958, 1155.128 615.039 C 1152.583 615.061, 1149.150 615.678, 1147.500 616.412 M 1194.361 616.922 C 1192.634 617.975, 1190.982 619.435, 1190.690 620.168 C 1190.397 620.901, 1190.122 620.263, 1190.079 618.750 C 1190.003 616.093, 1189.814 616, 1184.500 616 L 1179 616 1179 641 L 1179 666 1184.500 666 L 1190 666 1190 657.364 L 1190 648.727 1192.612 651.339 C 1195.835 654.562, 1200.402 655.507, 1205.768 654.063 C 1213.084 652.093, 1216.983 645.111, 1216.994 633.962 C 1217.009 619.824, 1204.744 610.591, 1194.361 616.922 M 1230.840 617.022 C 1228.827 618.085, 1226.241 620.149, 1225.094 621.608 C 1220.608 627.311, 1219.953 637.885, 1223.609 645.589 C 1228.052 654.950, 1243.655 657.779, 1252.495 650.825 C 1260.522 644.511, 1261.166 628.145, 1253.702 620.176 C 1248.735 614.874, 1237.770 613.361, 1230.840 617.022 M 1367.382 616.531 C 1355.018 621.953, 1353.482 643.996, 1364.939 651.579 C 1374.402 657.841, 1389.199 654.390, 1392.663 645.114 L 1393.826 642 1388.568 642 C 1384.580 642, 1382.873 642.483, 1381.500 644 C 1377.898 647.980, 1370.113 645.731, 1368.520 640.250 L 1367.865 638 1380.933 638 L 1394 638 1393.994 634.750 C 1393.980 626.599, 1389.551 618.964, 1383.329 616.364 C 1379.236 614.654, 1371.476 614.735, 1367.382 616.531 M 1412.455 617.455 C 1410.190 619.720, 1410 619.758, 1410 617.955 C 1410 616.252, 1409.291 616, 1404.500 616 L 1399 616 1399 635 L 1399 654 1404.500 654 L 1410 654 1410 642.135 C 1410 631.645, 1410.240 629.964, 1412.073 627.635 C 1413.683 625.587, 1415.021 625, 1418.073 625 L 1422 625 1422 620 L 1422 615 1418.455 615 C 1416.024 615, 1414.138 615.772, 1412.455 617.455 M 1283.063 626.750 C 1293.656 656.346, 1293.756 657.206, 1286.649 657.810 C 1283.120 658.110, 1283 658.251, 1283 662.060 L 1283 666 1289.250 665.996 C 1296.627 665.992, 1301.024 663.786, 1303.608 658.794 C 1305.271 655.581, 1318 618.376, 1318 616.729 C 1318 616.273, 1315.432 616.035, 1312.293 616.200 L 1306.585 616.500 1303.095 629.687 C 1301.176 636.940, 1299.345 642.713, 1299.026 642.516 C 1298.708 642.320, 1296.888 636.273, 1294.983 629.079 L 1291.518 616 1285.366 616 L 1279.215 616 1283.063 626.750 M 1322 619.962 L 1322 623.925 1330.883 624.212 L 1339.766 624.500 1330.329 636.378 C 1322.990 645.615, 1320.960 648.839, 1321.196 650.878 L 1321.500 653.500 1337.250 653.775 L 1353 654.051 1353 650.025 L 1353 646 1344.500 646 C 1339.825 646, 1336 645.747, 1336 645.438 C 1336 645.128, 1339.825 639.904, 1344.500 633.828 C 1351.322 624.960, 1353 622.111, 1353 619.390 L 1353 616 1337.500 616 L 1322 616 1322 619.962 M 1152.364 624.170 C 1151.189 624.738, 1149.736 626.283, 1149.136 627.602 L 1148.043 630 1155.500 630 L 1162.957 630 1161.868 627.610 C 1161.269 626.296, 1159.683 624.721, 1158.343 624.110 C 1155.482 622.807, 1155.172 622.810, 1152.364 624.170 M 1372.258 624.517 C 1371.024 625.389, 1369.546 626.979, 1368.973 628.051 C 1367.982 629.903, 1368.306 630, 1375.465 630 C 1379.609 630, 1383 629.600, 1383 629.111 C 1383 627.378, 1379.465 624.077, 1377 623.508 C 1375.489 623.159, 1373.613 623.558, 1372.258 624.517 M 1193.427 626.309 C 1189.726 629.493, 1188.991 637.071, 1191.930 641.750 C 1193.677 644.533, 1194.544 645, 1197.962 645 C 1201.100 645, 1202.299 644.473, 1203.567 642.538 C 1208.332 635.265, 1204.720 624, 1197.622 624 C 1196.791 624, 1194.904 625.039, 1193.427 626.309 M 1235.099 626.601 C 1229.491 633.731, 1232.937 646, 1240.548 646 C 1245.337 646, 1248.902 638.620, 1247.562 631.480 C 1246.193 624.179, 1239.167 621.430, 1235.099 626.601 M 725 814.404 L 725 824.808 730.233 824.849 C 736.924 824.900, 739 823.161, 739 817.500 C 739 812.239, 736.444 809.561, 732.039 810.208 C 729.173 810.628, 729 810.464, 729 807.327 C 729 804.667, 728.599 804, 727 804 C 725.128 804, 725 804.667, 725 814.404 M 652.073 807.635 C 648.994 811.549, 649.192 819.283, 652.455 822.545 C 657.601 827.692, 667 824.754, 667 818 C 667 815.167, 666.778 815, 663 815 C 660.800 815, 659 815.450, 659 816 C 659 816.550, 660.125 817, 661.500 817 C 662.885 817, 664 817.580, 664 818.300 C 664 822.306, 657.085 823.388, 654.557 819.777 C 649.805 812.993, 657.896 803.350, 663.090 809.608 C 664.407 811.195, 667 811.481, 667 810.039 C 667 807.637, 662.491 805, 658.384 805 C 654.996 805, 653.729 805.529, 652.073 807.635 M 688 815 C 688 824.333, 688.133 825, 690 825 C 691.707 825, 692 824.333, 692 820.445 L 692 815.890 696.750 816.195 L 701.500 816.500 701.807 820.750 C 702.017 823.644, 702.575 825, 703.557 825 C 704.718 825, 705 823.045, 705 815 C 705 806.778, 704.733 805, 703.500 805 C 702.417 805, 702 806.111, 702 809 L 702 813 697 813 L 692 813 692 809 C 692 805.667, 691.667 805, 690 805 C 688.133 805, 688 805.667, 688 815 M 750 815 C 750 824.333, 750.133 825, 752 825 C 753.667 825, 754 824.333, 754 821 C 754 815.706, 756.891 815.451, 759.313 820.531 C 760.907 823.872, 763.452 825.881, 764.617 824.716 C 764.909 824.425, 764.388 822.717, 763.459 820.921 C 761.900 817.906, 761.894 817.449, 763.386 814.924 C 766.955 808.882, 763.870 805, 755.500 805 L 750 805 750 815 M 900 813 C 900 822.799, 901.531 825, 908.345 825 C 914.800 825, 916 823.146, 916 813.171 C 916 806.575, 915.711 805, 914.500 805 C 913.304 805, 913 806.478, 913 812.300 C 913 820.357, 912.115 822, 907.775 822 C 904.225 822, 903 819.162, 903 810.935 C 903 806.326, 902.665 805, 901.500 805 C 900.292 805, 900 806.556, 900 813 M 921 815 C 921 823.222, 921.267 825, 922.500 825 C 923.583 825, 924 823.889, 924 821 C 924 817.680, 924.337 817, 925.980 817 C 927.283 817, 928.657 818.368, 930 821 C 931.358 823.663, 932.712 825, 934.050 825 C 936.021 825, 936.016 824.924, 933.803 821.079 C 931.658 817.352, 931.632 817.064, 933.273 815.250 C 935.700 812.569, 935.464 808.439, 932.777 806.557 C 931.519 805.675, 928.483 805, 925.777 805 L 921 805 921 815 M 939 815 L 939 825 945.500 825 C 950.611 825, 952 824.679, 952 823.500 C 952 822.367, 950.778 822, 947 822 L 942 822 942 813.500 C 942 806.611, 941.716 805, 940.500 805 C 939.267 805, 939 806.778, 939 815 M 679 808 C 679 809.111, 678.333 810, 677.500 810 C 676.675 810, 676 810.402, 676 810.893 C 676 811.384, 676.675 812.045, 677.500 812.362 C 678.578 812.775, 679 814.462, 679 818.362 C 679 822.385, 679.408 823.943, 680.582 824.393 C 683.262 825.421, 685 825.070, 685 823.500 C 685 822.675, 684.325 822, 683.500 822 C 682.367 822, 682 820.778, 682 817 C 682 813.222, 682.367 812, 683.500 812 C 684.325 812, 685 811.550, 685 811 C 685 810.450, 684.325 810, 683.500 810 C 682.667 810, 682 809.111, 682 808 C 682 806.889, 681.333 806, 680.500 806 C 679.667 806, 679 806.889, 679 808 M 840 807.917 C 840 808.971, 839.438 810.096, 838.750 810.417 C 837.750 810.883, 837.750 811.117, 838.750 811.583 C 839.516 811.941, 840 814.188, 840 817.383 C 840 823.089, 841.179 825, 844.700 825 C 847.528 825, 847.622 823.977, 845 821.732 C 843.687 820.608, 843 818.782, 843 816.416 C 843 813.654, 843.467 812.691, 845 812.290 C 846.100 812.002, 847 811.422, 847 811 C 847 810.578, 846.100 809.998, 845 809.710 C 843.900 809.423, 843 808.470, 843 807.594 C 843 806.717, 842.325 806, 841.500 806 C 840.675 806, 840 806.862, 840 807.917 M 754 811.437 C 754 814.470, 754.335 814.998, 756.250 814.985 C 759.631 814.962, 761.214 813.548, 760.837 810.887 C 760.572 809.012, 759.803 808.433, 757.250 808.187 C 754.133 807.886, 754 808.019, 754 811.437 M 924 811.437 C 924 814.492, 924.329 815, 926.309 815 C 927.579 815, 929.491 814.351, 930.559 813.559 C 933.236 811.570, 931.354 808.605, 927.149 808.187 C 924.147 807.888, 924 808.040, 924 811.437 M 671 817.500 C 671 823.500, 671.300 825, 672.500 825 C 673.700 825, 674 823.500, 674 817.500 C 674 811.500, 673.700 810, 672.500 810 C 671.300 810, 671 811.500, 671 817.500 M 709 816.378 C 709 820.365, 709.483 823.156, 710.290 823.826 C 710.999 824.414, 713.924 824.843, 716.790 824.778 L 722 824.659 722 817.329 C 722 811.481, 721.697 810, 720.500 810 C 719.399 810, 719 811.145, 719 814.309 C 719 819.343, 717.167 822.370, 714.434 821.849 C 712.834 821.544, 712.448 820.489, 712.200 815.740 C 711.980 811.530, 711.514 810, 710.450 810 C 709.335 810, 709 811.473, 709 816.378 M 769.073 812.635 C 767.933 814.084, 767 816.273, 767 817.500 C 767 818.727, 767.933 820.916, 769.073 822.365 C 771.660 825.655, 776.813 825.969, 779.500 823 C 781.250 821.066, 781.247 821.001, 779.405 821.015 C 778.357 821.024, 776.849 821.442, 776.054 821.946 C 774.248 823.088, 771 821.493, 771 819.465 C 771 818.374, 772.276 818, 776 818 C 780.125 818, 781 817.689, 781 816.223 C 781 810.115, 772.957 807.696, 769.073 812.635 M 784 820.171 C 784 828.241, 784.268 830, 785.500 830 C 786.563 830, 787 828.922, 787 826.300 C 787 823.422, 787.267 822.867, 788.200 823.800 C 788.860 824.460, 790.648 825, 792.174 825 C 795.782 825, 798.460 820.267, 797.562 815.479 C 796.721 810.994, 795.275 810.084, 789.210 810.222 L 784 810.341 784 820.171 M 802.073 812.635 C 800.933 814.084, 800 816.273, 800 817.500 C 800 821.258, 803.701 825, 807.418 825 C 811.650 825, 814.200 822.180, 814.200 817.500 C 814.200 812.820, 811.650 810, 807.418 810 C 805.073 810, 803.557 810.747, 802.073 812.635 M 818.571 811.571 C 815.601 814.542, 816.876 816.886, 822.438 818.678 C 824.053 819.199, 825.535 820.104, 825.730 820.689 C 826.229 822.186, 822.883 823.283, 821.633 822.033 C 820.416 820.816, 817 820.644, 817 821.800 C 817 823.521, 819.546 825, 822.509 825 C 829.609 825, 831.510 818.677, 825.060 816.515 C 823.169 815.881, 821.457 814.872, 821.258 814.273 C 820.633 812.398, 823.084 811.707, 825.594 813.050 C 828.429 814.567, 829.820 813.692, 828.020 811.524 C 826.370 809.536, 820.578 809.565, 818.571 811.571 M 832 817.500 C 832 823.500, 832.300 825, 833.500 825 C 834.700 825, 835 823.500, 835 817.500 C 835 811.500, 834.700 810, 833.500 810 C 832.300 810, 832 811.500, 832 817.500 M 850.557 812.223 C 848.370 815.344, 848.586 820.586, 851 823 C 855.412 827.412, 863 823.956, 863 817.534 C 863 812.637, 860.550 810, 856 810 C 853.117 810, 851.711 810.574, 850.557 812.223 M 866 817.627 C 866 823.514, 866.302 825, 867.500 825 C 868.621 825, 869.004 823.799, 869.015 820.250 C 869.033 814.835, 869.701 813.384, 872.417 812.866 C 873.472 812.665, 874.516 811.953, 874.739 811.285 C 875.020 810.442, 873.745 810.098, 870.572 810.162 L 866 810.254 866 817.627 M 876 810.369 C 876 810.653, 877.202 814.129, 878.672 818.094 L 881.344 825.303 879.172 827.062 C 876.364 829.336, 876.432 830, 879.474 830 C 882.340 830, 883.998 827.298, 887.565 816.809 C 889.740 810.414, 889.770 810, 888.065 810 C 886.886 810, 886.057 810.963, 885.698 812.750 C 885.394 814.263, 884.618 816.850, 883.973 818.500 L 882.801 821.500 881.117 816.007 C 880.039 812.490, 878.816 810.396, 877.717 810.184 C 876.773 810.002, 876 810.086, 876 810.369 M 730.559 813.333 C 729.370 814.202, 728.944 815.651, 729.171 818.044 C 729.434 820.809, 729.977 821.567, 731.887 821.837 C 734.655 822.229, 735.963 820.616, 735.985 816.785 C 736.004 813.385, 733.055 811.508, 730.559 813.333 M 805.559 813.333 C 804.370 814.202, 803.944 815.651, 804.171 818.044 C 804.466 821.144, 804.809 821.500, 807.500 821.500 C 810.235 821.500, 810.527 821.175, 810.806 817.815 C 811.171 813.432, 808.520 811.168, 805.559 813.333 M 853.571 813.571 C 852.707 814.436, 852 816.146, 852 817.371 C 852 822.136, 857.255 823.728, 859.163 819.541 C 860.061 817.572, 859.952 816.576, 858.619 814.541 C 856.685 811.590, 855.735 811.408, 853.571 813.571 M 787.372 815.655 C 786.527 819.022, 788.063 821.500, 790.994 821.500 C 793.702 821.500, 795.106 818.483, 793.902 815.250 C 792.652 811.892, 788.248 812.165, 787.372 815.655 M 1660.180 852.682 C 1658.353 853.582, 1655.653 855.899, 1654.180 857.831 L 1651.500 861.344 1651.500 901 L 1651.500 940.656 1654.194 944.187 C 1659.717 951.429, 1653.216 951, 1757.500 951 C 1861.784 951, 1855.283 951.429, 1860.806 944.187 L 1863.500 940.656 1863.500 901 L 1863.500 861.344 1860.806 857.813 C 1855.281 850.569, 1861.808 850.997, 1757.349 851.023 C 1672.504 851.043, 1663.181 851.203, 1660.180 852.682 M 1758 901 L 1758 913 1760.500 913 L 1763 913 1763 901 L 1763 889 1760.500 889 L 1758 889 1758 901 M 1703.738 900.712 C 1701.668 906.645, 1699.981 911.837, 1699.988 912.250 C 1699.994 912.663, 1700.856 913, 1701.902 913 C 1703.117 913, 1704.182 911.915, 1704.850 910 C 1705.774 907.349, 1706.356 907, 1709.850 907 C 1713.345 907, 1713.926 907.349, 1714.850 910 C 1715.554 912.019, 1716.567 913, 1717.948 913 C 1719.077 913, 1719.995 912.663, 1719.988 912.250 C 1719.981 911.837, 1718.238 906.775, 1716.115 901 C 1712.805 891.999, 1711.914 890.459, 1709.877 890.212 C 1707.694 889.947, 1707.193 890.805, 1703.738 900.712 M 1722.667 895.667 C 1722.300 896.033, 1722 900.083, 1722 904.667 C 1722 912.333, 1722.160 913, 1724 913 C 1725.699 913, 1726 912.333, 1726 908.565 C 1726 902.085, 1727.493 898.789, 1730.252 899.181 C 1732.294 899.471, 1732.527 900.118, 1732.796 906.250 C 1733.081 912.769, 1733.180 913, 1735.680 913 C 1738.267 913, 1738.268 912.995, 1737.766 905.974 C 1737.075 896.316, 1733.729 892.934, 1727.934 896.035 C 1726.601 896.749, 1726 896.749, 1726 896.035 C 1726 894.883, 1723.704 894.629, 1722.667 895.667 M 1743.223 896.557 C 1740.795 898.257, 1740.226 901, 1742.300 901 C 1743.015 901, 1744.088 900.512, 1744.685 899.915 C 1746.016 898.584, 1750.206 899.081, 1750.715 900.631 C 1750.924 901.266, 1749.434 902.071, 1747.312 902.469 C 1741.600 903.541, 1740 904.732, 1740 907.913 C 1740 911.948, 1741.718 912.905, 1748.788 912.805 L 1755 912.717 1754.986 907.108 C 1754.968 899.549, 1754.276 897.447, 1751.368 896.122 C 1748.020 894.596, 1745.856 894.712, 1743.223 896.557 M 1765 895.739 C 1765 896.222, 1766.383 900.407, 1768.074 905.040 L 1771.148 913.462 1769.074 915.141 C 1766.330 917.363, 1766.445 919, 1769.345 919 C 1772.690 919, 1774.297 916.677, 1777.859 906.698 C 1781.482 896.545, 1781.702 894.724, 1779.250 895.177 C 1778.094 895.390, 1776.768 897.686, 1775.344 901.939 L 1773.189 908.379 1771.218 901.939 C 1769.683 896.926, 1768.777 895.429, 1767.123 895.180 C 1765.956 895.005, 1765 895.256, 1765 895.739 M 1783.667 895.667 C 1781.678 897.655, 1783.251 899, 1787.566 899 L 1792.133 899 1787.566 904.812 C 1785.055 908.009, 1783 911.159, 1783 911.812 C 1783 912.616, 1785.262 913, 1790 913 C 1795.556 913, 1797 912.690, 1797 911.500 C 1797 910.417, 1795.889 910, 1793 910 C 1790.800 910, 1789 909.762, 1789 909.471 C 1789 909.179, 1790.800 906.664, 1793 903.881 C 1795.200 901.098, 1797 897.961, 1797 896.910 C 1797 895.231, 1796.234 895, 1790.667 895 C 1787.183 895, 1784.033 895.300, 1783.667 895.667 M 1801.798 898.048 C 1799.117 900.729, 1798.816 901.590, 1799.299 905.195 C 1800.016 910.539, 1802.722 913.200, 1807.439 913.200 C 1810.883 913.200, 1815 910.829, 1815 908.845 C 1815 907.601, 1812.265 907.817, 1809.983 909.243 C 1808.544 910.142, 1807.526 910.191, 1806.306 909.421 C 1802.686 907.138, 1803.720 906, 1809.417 906 L 1815 906 1815 902.573 C 1815 900.061, 1814.296 898.591, 1812.365 897.073 C 1808.671 894.166, 1805.376 894.471, 1801.798 898.048" stroke="none" fill="#2358c8" fill-rule="evenodd"/><path d="M 0 702 L 0 1404.001 1289.250 1403.750 L 2578.500 1403.500 2578.751 701.750 L 2579.001 0 1289.501 0 L 0 0 0 702 M 0.497 702.500 C 0.497 1088.600, 0.611 1246.700, 0.750 1053.832 C 0.889 860.965, 0.889 545.065, 0.750 351.832 C 0.611 158.600, 0.497 316.400, 0.497 702.500 M 1200.500 379.918 C 1192.045 382.043, 1183.702 388.913, 1179.150 397.500 L 1176.500 402.500 1176.500 459 L 1176.500 515.500 1179.250 520.717 C 1180.762 523.586, 1183.590 527.523, 1185.533 529.467 C 1187.477 531.410, 1191.414 534.238, 1194.283 535.750 L 1199.500 538.500 1256 538.500 L 1312.500 538.500 1317.717 535.750 C 1324.342 532.258, 1329.258 527.342, 1332.750 520.717 L 1335.500 515.500 1335.500 459 L 1335.500 402.500 1332.750 397.283 C 1329.258 390.658, 1324.342 385.742, 1317.717 382.250 L 1312.500 379.500 1258 379.332 C 1228.025 379.240, 1202.150 379.503, 1200.500 379.918 M 1241.009 416.490 C 1240.114 417.568, 1239.878 421.836, 1240.156 431.942 L 1240.539 445.904 1236.165 447.575 C 1230.539 449.723, 1225.429 454.238, 1222.808 459.376 C 1219.956 464.966, 1219.347 474.271, 1221.458 480 C 1222.370 482.475, 1223.262 487.990, 1223.441 492.257 C 1223.920 503.676, 1226.253 505.257, 1235.581 500.481 C 1240.189 498.122, 1241.479 497.958, 1256 497.892 C 1270.893 497.823, 1271.676 497.921, 1276 500.398 C 1284.859 505.473, 1288.157 503.514, 1288.611 492.906 C 1288.786 488.833, 1289.600 483.700, 1290.421 481.500 C 1292.410 476.164, 1292.375 468.456, 1290.333 462.463 C 1288.193 456.183, 1280.783 448.615, 1275.111 446.915 C 1271.058 445.701, 1270.984 445.599, 1271.617 442.087 C 1272.499 437.187, 1272.673 437, 1276.337 437 C 1279.784 437, 1282.313 438.417, 1288.253 443.677 C 1290.651 445.800, 1293.044 447, 1294.880 447 C 1299.983 447, 1301.768 441.965, 1297.500 439.611 C 1296.400 439.004, 1293.475 436.891, 1291 434.915 C 1284.558 429.772, 1282.745 429, 1277.113 429 L 1272.095 429 1271.798 422.854 C 1271.466 416.015, 1269.562 413.528, 1266.250 415.610 C 1264.786 416.530, 1264.417 418.738, 1263.993 429.105 C 1263.599 438.712, 1263.046 442.356, 1261.532 445.304 C 1259.274 449.700, 1260.167 452.305, 1264.102 452.805 C 1279.025 454.701, 1287.329 466.094, 1282.465 478 C 1281.411 480.580, 1280.667 484.739, 1280.722 487.750 C 1280.775 490.637, 1280.509 493, 1280.131 493 C 1279.754 493, 1278.377 492.252, 1277.072 491.338 C 1275.081 489.943, 1271.727 489.660, 1256.251 489.582 C 1240.262 489.501, 1237.451 489.721, 1235.152 491.238 C 1231.420 493.699, 1231.122 493.506, 1231.725 489.015 C 1232.100 486.215, 1231.626 483.558, 1230.130 480.080 C 1226.769 472.267, 1227.712 465.278, 1232.886 459.664 C 1236.369 455.885, 1238.477 454.803, 1244.932 453.481 C 1252.066 452.021, 1253.047 450.387, 1250.207 444.700 C 1248.317 440.916, 1248 438.637, 1248 428.840 C 1248 417.133, 1247.372 415, 1243.922 415 C 1243 415, 1241.689 415.670, 1241.009 416.490 M 1093 628.500 L 1093 654 1098.500 654 L 1104 654 1104 645 L 1104 636 1107.990 636 L 1111.980 636 1116.500 645 L 1121.020 654 1127.576 654 L 1134.131 654 1128.910 644.016 L 1123.689 634.032 1126.365 631.928 C 1130.276 628.851, 1132 624.803, 1132 618.698 C 1132 612.284, 1129.348 607.685, 1124.016 604.852 C 1121.111 603.308, 1118.242 603, 1106.766 603 L 1093 603 1093 628.500 M 1265 628.500 L 1265 654 1270.500 654 L 1276 654 1276 628.500 L 1276 603 1270.500 603 L 1265 603 1265 628.500 M 1104 619.500 L 1104 627 1108.953 627 C 1115.185 627, 1118.555 625.488, 1119.978 622.054 C 1121.334 618.779, 1120.006 614.609, 1117.114 613.061 C 1116.023 612.477, 1112.627 612, 1109.566 612 L 1104 612 1104 619.500 M 1147.500 616.412 C 1135.637 621.684, 1133.195 642.715, 1143.505 650.825 C 1151.861 657.398, 1167.220 655.276, 1171.524 646.953 C 1173.790 642.572, 1173.401 642, 1168.155 642 C 1164.580 642, 1162.836 642.524, 1161.500 644 C 1158.736 647.054, 1152.711 646.719, 1150.073 643.365 C 1146.136 638.360, 1146.837 638, 1160.531 638 C 1174.886 638, 1174.818 638.044, 1173.060 629.843 C 1170.981 620.148, 1164.694 614.958, 1155.128 615.039 C 1152.583 615.061, 1149.150 615.678, 1147.500 616.412 M 1194.361 616.922 C 1192.634 617.975, 1190.982 619.435, 1190.690 620.168 C 1190.397 620.901, 1190.122 620.263, 1190.079 618.750 C 1190.003 616.093, 1189.814 616, 1184.500 616 L 1179 616 1179 641 L 1179 666 1184.500 666 L 1190 666 1190 657.364 L 1190 648.727 1192.612 651.339 C 1195.835 654.562, 1200.402 655.507, 1205.768 654.063 C 1213.084 652.093, 1216.983 645.111, 1216.994 633.962 C 1217.009 619.824, 1204.744 610.591, 1194.361 616.922 M 1230.840 617.022 C 1228.827 618.085, 1226.241 620.149, 1225.094 621.608 C 1220.608 627.311, 1219.953 637.885, 1223.609 645.589 C 1228.052 654.950, 1243.655 657.779, 1252.495 650.825 C 1260.522 644.511, 1261.166 628.145, 1253.702 620.176 C 1248.735 614.874, 1237.770 613.361, 1230.840 617.022 M 1367.382 616.531 C 1355.018 621.953, 1353.482 643.996, 1364.939 651.579 C 1374.402 657.841, 1389.199 654.390, 1392.663 645.114 L 1393.826 642 1388.568 642 C 1384.580 642, 1382.873 642.483, 1381.500 644 C 1377.898 647.980, 1370.113 645.731, 1368.520 640.250 L 1367.865 638 1380.933 638 L 1394 638 1393.994 634.750 C 1393.980 626.599, 1389.551 618.964, 1383.329 616.364 C 1379.236 614.654, 1371.476 614.735, 1367.382 616.531 M 1412.455 617.455 C 1410.190 619.720, 1410 619.758, 1410 617.955 C 1410 616.252, 1409.291 616, 1404.500 616 L 1399 616 1399 635 L 1399 654 1404.500 654 L 1410 654 1410 642.135 C 1410 631.645, 1410.240 629.964, 1412.073 627.635 C 1413.683 625.587, 1415.021 625, 1418.073 625 L 1422 625 1422 620 L 1422 615 1418.455 615 C 1416.024 615, 1414.138 615.772, 1412.455 617.455 M 1283.063 626.750 C 1293.656 656.346, 1293.756 657.206, 1286.649 657.810 C 1283.120 658.110, 1283 658.251, 1283 662.060 L 1283 666 1289.250 665.996 C 1296.627 665.992, 1301.024 663.786, 1303.608 658.794 C 1305.271 655.581, 1318 618.376, 1318 616.729 C 1318 616.273, 1315.432 616.035, 1312.293 616.200 L 1306.585 616.500 1303.095 629.687 C 1301.176 636.940, 1299.345 642.713, 1299.026 642.516 C 1298.708 642.320, 1296.888 636.273, 1294.983 629.079 L 1291.518 616 1285.366 616 L 1279.215 616 1283.063 626.750 M 1322 619.962 L 1322 623.925 1330.883 624.212 L 1339.766 624.500 1330.329 636.378 C 1322.990 645.615, 1320.960 648.839, 1321.196 650.878 L 1321.500 653.500 1337.250 653.775 L 1353 654.051 1353 650.025 L 1353 646 1344.500 646 C 1339.825 646, 1336 645.747, 1336 645.438 C 1336 645.128, 1339.825 639.904, 1344.500 633.828 C 1351.322 624.960, 1353 622.111, 1353 619.390 L 1353 616 1337.500 616 L 1322 616 1322 619.962 M 1152.364 624.170 C 1151.189 624.738, 1149.736 626.283, 1149.136 627.602 L 1148.043 630 1155.500 630 L 1162.957 630 1161.868 627.610 C 1161.269 626.296, 1159.683 624.721, 1158.343 624.110 C 1155.482 622.807, 1155.172 622.810, 1152.364 624.170 M 1372.258 624.517 C 1371.024 625.389, 1369.546 626.979, 1368.973 628.051 C 1367.982 629.903, 1368.306 630, 1375.465 630 C 1379.609 630, 1383 629.600, 1383 629.111 C 1383 627.378, 1379.465 624.077, 1377 623.508 C 1375.489 623.159, 1373.613 623.558, 1372.258 624.517 M 1193.427 626.309 C 1189.726 629.493, 1188.991 637.071, 1191.930 641.750 C 1193.677 644.533, 1194.544 645, 1197.962 645 C 1201.100 645, 1202.299 644.473, 1203.567 642.538 C 1208.332 635.265, 1204.720 624, 1197.622 624 C 1196.791 624, 1194.904 625.039, 1193.427 626.309 M 1235.099 626.601 C 1229.491 633.731, 1232.937 646, 1240.548 646 C 1245.337 646, 1248.902 638.620, 1247.562 631.480 C 1246.193 624.179, 1239.167 621.430, 1235.099 626.601 M 725 814.404 L 725 824.808 730.233 824.849 C 736.924 824.900, 739 823.161, 739 817.500 C 739 812.239, 736.444 809.561, 732.039 810.208 C 729.173 810.628, 729 810.464, 729 807.327 C 729 804.667, 728.599 804, 727 804 C 725.128 804, 725 804.667, 725 814.404 M 652.073 807.635 C 648.994 811.549, 649.192 819.283, 652.455 822.545 C 657.601 827.692, 667 824.754, 667 818 C 667 815.167, 666.778 815, 663 815 C 660.800 815, 659 815.450, 659 816 C 659 816.550, 660.125 817, 661.500 817 C 662.885 817, 664 817.580, 664 818.300 C 664 822.306, 657.085 823.388, 654.557 819.777 C 649.805 812.993, 657.896 803.350, 663.090 809.608 C 664.407 811.195, 667 811.481, 667 810.039 C 667 807.637, 662.491 805, 658.384 805 C 654.996 805, 653.729 805.529, 652.073 807.635 M 688 815 C 688 824.333, 688.133 825, 690 825 C 691.707 825, 692 824.333, 692 820.445 L 692 815.890 696.750 816.195 L 701.500 816.500 701.807 820.750 C 702.017 823.644, 702.575 825, 703.557 825 C 704.718 825, 705 823.045, 705 815 C 705 806.778, 704.733 805, 703.500 805 C 702.417 805, 702 806.111, 702 809 L 702 813 697 813 L 692 813 692 809 C 692 805.667, 691.667 805, 690 805 C 688.133 805, 688 805.667, 688 815 M 750 815 C 750 824.333, 750.133 825, 752 825 C 753.667 825, 754 824.333, 754 821 C 754 815.706, 756.891 815.451, 759.313 820.531 C 760.907 823.872, 763.452 825.881, 764.617 824.716 C 764.909 824.425, 764.388 822.717, 763.459 820.921 C 761.900 817.906, 761.894 817.449, 763.386 814.924 C 766.955 808.882, 763.870 805, 755.500 805 L 750 805 750 815 M 900 813 C 900 822.799, 901.531 825, 908.345 825 C 914.800 825, 916 823.146, 916 813.171 C 916 806.575, 915.711 805, 914.500 805 C 913.304 805, 913 806.478, 913 812.300 C 913 820.357, 912.115 822, 907.775 822 C 904.225 822, 903 819.162, 903 810.935 C 903 806.326, 902.665 805, 901.500 805 C 900.292 805, 900 806.556, 900 813 M 921 815 C 921 823.222, 921.267 825, 922.500 825 C 923.583 825, 924 823.889, 924 821 C 924 817.680, 924.337 817, 925.980 817 C 927.283 817, 928.657 818.368, 930 821 C 931.358 823.663, 932.712 825, 934.050 825 C 936.021 825, 936.016 824.924, 933.803 821.079 C 931.658 817.352, 931.632 817.064, 933.273 815.250 C 935.700 812.569, 935.464 808.439, 932.777 806.557 C 931.519 805.675, 928.483 805, 925.777 805 L 921 805 921 815 M 939 815 L 939 825 945.500 825 C 950.611 825, 952 824.679, 952 823.500 C 952 822.367, 950.778 822, 947 822 L 942 822 942 813.500 C 942 806.611, 941.716 805, 940.500 805 C 939.267 805, 939 806.778, 939 815 M 679 808 C 679 809.111, 678.333 810, 677.500 810 C 676.675 810, 676 810.402, 676 810.893 C 676 811.384, 676.675 812.045, 677.500 812.362 C 678.578 812.775, 679 814.462, 679 818.362 C 679 822.385, 679.408 823.943, 680.582 824.393 C 683.262 825.421, 685 825.070, 685 823.500 C 685 822.675, 684.325 822, 683.500 822 C 682.367 822, 682 820.778, 682 817 C 682 813.222, 682.367 812, 683.500 812 C 684.325 812, 685 811.550, 685 811 C 685 810.450, 684.325 810, 683.500 810 C 682.667 810, 682 809.111, 682 808 C 682 806.889, 681.333 806, 680.500 806 C 679.667 806, 679 806.889, 679 808 M 840 807.917 C 840 808.971, 839.438 810.096, 838.750 810.417 C 837.750 810.883, 837.750 811.117, 838.750 811.583 C 839.516 811.941, 840 814.188, 840 817.383 C 840 823.089, 841.179 825, 844.700 825 C 847.528 825, 847.622 823.977, 845 821.732 C 843.687 820.608, 843 818.782, 843 816.416 C 843 813.654, 843.467 812.691, 845 812.290 C 846.100 812.002, 847 811.422, 847 811 C 847 810.578, 846.100 809.998, 845 809.710 C 843.900 809.423, 843 808.470, 843 807.594 C 843 806.717, 842.325 806, 841.500 806 C 840.675 806, 840 806.862, 840 807.917 M 754 811.437 C 754 814.470, 754.335 814.998, 756.250 814.985 C 759.631 814.962, 761.214 813.548, 760.837 810.887 C 760.572 809.012, 759.803 808.433, 757.250 808.187 C 754.133 807.886, 754 808.019, 754 811.437 M 924 811.437 C 924 814.492, 924.329 815, 926.309 815 C 927.579 815, 929.491 814.351, 930.559 813.559 C 933.236 811.570, 931.354 808.605, 927.149 808.187 C 924.147 807.888, 924 808.040, 924 811.437 M 671 817.500 C 671 823.500, 671.300 825, 672.500 825 C 673.700 825, 674 823.500, 674 817.500 C 674 811.500, 673.700 810, 672.500 810 C 671.300 810, 671 811.500, 671 817.500 M 709 816.378 C 709 820.365, 709.483 823.156, 710.290 823.826 C 710.999 824.414, 713.924 824.843, 716.790 824.778 L 722 824.659 722 817.329 C 722 811.481, 721.697 810, 720.500 810 C 719.399 810, 719 811.145, 719 814.309 C 719 819.343, 717.167 822.370, 714.434 821.849 C 712.834 821.544, 712.448 820.489, 712.200 815.740 C 711.980 811.530, 711.514 810, 710.450 810 C 709.335 810, 709 811.473, 709 816.378 M 769.073 812.635 C 767.933 814.084, 767 816.273, 767 817.500 C 767 818.727, 767.933 820.916, 769.073 822.365 C 771.660 825.655, 776.813 825.969, 779.500 823 C 781.250 821.066, 781.247 821.001, 779.405 821.015 C 778.357 821.024, 776.849 821.442, 776.054 821.946 C 774.248 823.088, 771 821.493, 771 819.465 C 771 818.374, 772.276 818, 776 818 C 780.125 818, 781 817.689, 781 816.223 C 781 810.115, 772.957 807.696, 769.073 812.635 M 784 820.171 C 784 828.241, 784.268 830, 785.500 830 C 786.563 830, 787 828.922, 787 826.300 C 787 823.422, 787.267 822.867, 788.200 823.800 C 788.860 824.460, 790.648 825, 792.174 825 C 795.782 825, 798.460 820.267, 797.562 815.479 C 796.721 810.994, 795.275 810.084, 789.210 810.222 L 784 810.341 784 820.171 M 802.073 812.635 C 800.933 814.084, 800 816.273, 800 817.500 C 800 821.258, 803.701 825, 807.418 825 C 811.650 825, 814.200 822.180, 814.200 817.500 C 814.200 812.820, 811.650 810, 807.418 810 C 805.073 810, 803.557 810.747, 802.073 812.635 M 818.571 811.571 C 815.601 814.542, 816.876 816.886, 822.438 818.678 C 824.053 819.199, 825.535 820.104, 825.730 820.689 C 826.229 822.186, 822.883 823.283, 821.633 822.033 C 820.416 820.816, 817 820.644, 817 821.800 C 817 823.521, 819.546 825, 822.509 825 C 829.609 825, 831.510 818.677, 825.060 816.515 C 823.169 815.881, 821.457 814.872, 821.258 814.273 C 820.633 812.398, 823.084 811.707, 825.594 813.050 C 828.429 814.567, 829.820 813.692, 828.020 811.524 C 826.370 809.536, 820.578 809.565, 818.571 811.571 M 832 817.500 C 832 823.500, 832.300 825, 833.500 825 C 834.700 825, 835 823.500, 835 817.500 C 835 811.500, 834.700 810, 833.500 810 C 832.300 810, 832 811.500, 832 817.500 M 850.557 812.223 C 848.370 815.344, 848.586 820.586, 851 823 C 855.412 827.412, 863 823.956, 863 817.534 C 863 812.637, 860.550 810, 856 810 C 853.117 810, 851.711 810.574, 850.557 812.223 M 866 817.627 C 866 823.514, 866.302 825, 867.500 825 C 868.621 825, 869.004 823.799, 869.015 820.250 C 869.033 814.835, 869.701 813.384, 872.417 812.866 C 873.472 812.665, 874.516 811.953, 874.739 811.285 C 875.020 810.442, 873.745 810.098, 870.572 810.162 L 866 810.254 866 817.627 M 876 810.369 C 876 810.653, 877.202 814.129, 878.672 818.094 L 881.344 825.303 879.172 827.062 C 876.364 829.336, 876.432 830, 879.474 830 C 882.340 830, 883.998 827.298, 887.565 816.809 C 889.740 810.414, 889.770 810, 888.065 810 C 886.886 810, 886.057 810.963, 885.698 812.750 C 885.394 814.263, 884.618 816.850, 883.973 818.500 L 882.801 821.500 881.117 816.007 C 880.039 812.490, 878.816 810.396, 877.717 810.184 C 876.773 810.002, 876 810.086, 876 810.369 M 730.559 813.333 C 729.370 814.202, 728.944 815.651, 729.171 818.044 C 729.434 820.809, 729.977 821.567, 731.887 821.837 C 734.655 822.229, 735.963 820.616, 735.985 816.785 C 736.004 813.385, 733.055 811.508, 730.559 813.333 M 805.559 813.333 C 804.370 814.202, 803.944 815.651, 804.171 818.044 C 804.466 821.144, 804.809 821.500, 807.500 821.500 C 810.235 821.500, 810.527 821.175, 810.806 817.815 C 811.171 813.432, 808.520 811.168, 805.559 813.333 M 853.571 813.571 C 852.707 814.436, 852 816.146, 852 817.371 C 852 822.136, 857.255 823.728, 859.163 819.541 C 860.061 817.572, 859.952 816.576, 858.619 814.541 C 856.685 811.590, 855.735 811.408, 853.571 813.571 M 787.372 815.655 C 786.527 819.022, 788.063 821.500, 790.994 821.500 C 793.702 821.500, 795.106 818.483, 793.902 815.250 C 792.652 811.892, 788.248 812.165, 787.372 815.655 M 1660.180 852.682 C 1658.353 853.582, 1655.653 855.899, 1654.180 857.831 L 1651.500 861.344 1651.500 901 L 1651.500 940.656 1654.194 944.187 C 1659.717 951.429, 1653.216 951, 1757.500 951 C 1861.784 951, 1855.283 951.429, 1860.806 944.187 L 1863.500 940.656 1863.500 901 L 1863.500 861.344 1860.806 857.813 C 1855.281 850.569, 1861.808 850.997, 1757.349 851.023 C 1672.504 851.043, 1663.181 851.203, 1660.180 852.682 M 1758 901 L 1758 913 1760.500 913 L 1763 913 1763 901 L 1763 889 1760.500 889 L 1758 889 1758 901 M 1703.738 900.712 C 1701.668 906.645, 1699.981 911.837, 1699.988 912.250 C 1699.994 912.663, 1700.856 913, 1701.902 913 C 1703.117 913, 1704.182 911.915, 1704.850 910 C 1705.774 907.349, 1706.356 907, 1709.850 907 C 1713.345 907, 1713.926 907.349, 1714.850 910 C 1715.554 912.019, 1716.567 913, 1717.948 913 C 1719.077 913, 1719.995 912.663, 1719.988 912.250 C 1719.981 911.837, 1718.238 906.775, 1716.115 901 C 1712.805 891.999, 1711.914 890.459, 1709.877 890.212 C 1707.694 889.947, 1707.193 890.805, 1703.738 900.712 M 1722.667 895.667 C 1722.300 896.033, 1722 900.083, 1722 904.667 C 1722 912.333, 1722.160 913, 1724 913 C 1725.699 913, 1726 912.333, 1726 908.565 C 1726 902.085, 1727.493 898.789, 1730.252 899.181 C 1732.294 899.471, 1732.527 900.118, 1732.796 906.250 C 1733.081 912.769, 1733.180 913, 1735.680 913 C 1738.267 913, 1738.268 912.995, 1737.766 905.974 C 1737.075 896.316, 1733.729 892.934, 1727.934 896.035 C 1726.601 896.749, 1726 896.749, 1726 896.035 C 1726 894.883, 1723.704 894.629, 1722.667 895.667 M 1743.223 896.557 C 1740.795 898.257, 1740.226 901, 1742.300 901 C 1743.015 901, 1744.088 900.512, 1744.685 899.915 C 1746.016 898.584, 1750.206 899.081, 1750.715 900.631 C 1750.924 901.266, 1749.434 902.071, 1747.312 902.469 C 1741.600 903.541, 1740 904.732, 1740 907.913 C 1740 911.948, 1741.718 912.905, 1748.788 912.805 L 1755 912.717 1754.986 907.108 C 1754.968 899.549, 1754.276 897.447, 1751.368 896.122 C 1748.020 894.596, 1745.856 894.712, 1743.223 896.557 M 1765 895.739 C 1765 896.222, 1766.383 900.407, 1768.074 905.040 L 1771.148 913.462 1769.074 915.141 C 1766.330 917.363, 1766.445 919, 1769.345 919 C 1772.690 919, 1774.297 916.677, 1777.859 906.698 C 1781.482 896.545, 1781.702 894.724, 1779.250 895.177 C 1778.094 895.390, 1776.768 897.686, 1775.344 901.939 L 1773.189 908.379 1771.218 901.939 C 1769.683 896.926, 1768.777 895.429, 1767.123 895.180 C 1765.956 895.005, 1765 895.256, 1765 895.739 M 1783.667 895.667 C 1781.678 897.655, 1783.251 899, 1787.566 899 L 1792.133 899 1787.566 904.812 C 1785.055 908.009, 1783 911.159, 1783 911.812 C 1783 912.616, 1785.262 913, 1790 913 C 1795.556 913, 1797 912.690, 1797 911.500 C 1797 910.417, 1795.889 910, 1793 910 C 1790.800 910, 1789 909.762, 1789 909.471 C 1789 909.179, 1790.800 906.664, 1793 903.881 C 1795.200 901.098, 1797 897.961, 1797 896.910 C 1797 895.231, 1796.234 895, 1790.667 895 C 1787.183 895, 1784.033 895.300, 1783.667 895.667 M 1801.798 898.048 C 1799.117 900.729, 1798.816 901.590, 1799.299 905.195 C 1800.016 910.539, 1802.722 913.200, 1807.439 913.200 C 1810.883 913.200, 1815 910.829, 1815 908.845 C 1815 907.601, 1812.265 907.817, 1809.983 909.243 C 1808.544 910.142, 1807.526 910.191, 1806.306 909.421 C 1802.686 907.138, 1803.720 906, 1809.417 906 L 1815 906 1815 902.573 C 1815 900.061, 1814.296 898.591, 1812.365 897.073 C 1808.671 894.166, 1805.376 894.471, 1801.798 898.048" stroke="none" fill="#e9effb" fill-rule="evenodd"/></svg>